<?xml version="1.0" encoding="utf-8"?>
<!-- Generator: Adobe Illustrator 16.0.0, SVG Export Plug-In . SVG Version: 6.00 Build 0)  -->
<!DOCTYPE svg PUBLIC "-//W3C//DTD SVG 1.1//EN" "http://www.w3.org/Graphics/SVG/1.1/DTD/svg11.dtd">
<svg version="1.1" id="Layer_1" xmlns="http://www.w3.org/2000/svg" xmlns:xlink="http://www.w3.org/1999/xlink" x="0px" y="0px"
	 width="24px" height="24px" viewBox="0 0 24 24" enable-background="new 0 0 24 24" xml:space="preserve">
<path fill="#FFFFFF" d="M10.774,22.918v-2.451H8.323v-2.451h2.451v-2.574c-1.614-0.287-2.937-1.058-3.968-2.313
	c-1.031-1.256-1.547-2.712-1.547-4.366c0-1.859,0.659-3.437,1.976-4.734C8.553,2.731,10.141,2.083,12,2.083
	c1.858,0,3.447,0.649,4.765,1.945c1.317,1.297,1.976,2.875,1.976,4.734c0,1.654-0.516,3.109-1.547,4.366
	c-1.03,1.256-2.354,2.026-3.968,2.313v2.574h2.451v2.451h-2.451v2.451H10.774z M12,13.113c1.185,0,2.195-0.419,3.033-1.257
	c0.838-0.837,1.256-1.848,1.256-3.033s-0.418-2.196-1.256-3.033S13.185,4.534,12,4.534c-1.185,0-2.196,0.419-3.033,1.256
	S7.71,7.638,7.71,8.823s0.419,2.196,1.256,3.033C9.804,12.694,10.815,13.113,12,13.113z"/>
</svg>
