<?xml version="1.0" encoding="utf-8"?>
<!-- Generator: Adobe Illustrator 16.0.0, SVG Export Plug-In . SVG Version: 6.00 Build 0)  -->
<!DOCTYPE svg PUBLIC "-//W3C//DTD SVG 1.1//EN" "http://www.w3.org/Graphics/SVG/1.1/DTD/svg11.dtd">
<svg version="1.1" id="Layer_1" xmlns="http://www.w3.org/2000/svg" xmlns:xlink="http://www.w3.org/1999/xlink" x="0px" y="0px"
	 width="800px" height="800px" viewBox="0 0 800 800" enable-background="new 0 0 800 800" xml:space="preserve">
<title>kidney</title>
<g>
	<path fill="#FFCCD5" d="M763.833,316.667c3.333,26.833,12,96.833-31.5,150c-6.167,7.666-48.167,58.833-102.167,48
		c-49.166-9.5-90.5-63-80.166-98.001c10.333-35,60.333-20.666,108.833-66.666c58.833-55.833,50-136.833,70.166-136.5
		C749.166,213.833,759.999,285.833,763.833,316.667z"/>
	<path fill="#FFCCD5" d="M36.333,310.5c-3.333,26.833-12,96.833,31.5,150C74,468,116.666,519.167,170,508.333
		c49.166-9.833,90.666-63.5,80.5-97.833c-10.167-34.333-60.334-20.667-108.834-66.667C82.833,288,91.666,207,71.5,207.333
		C51.333,207.667,40.166,279,36.333,310.5z"/>
</g>
<g>
	<path fill="#FF4D6D" d="M645.666,543.167c-7.442,0.013-14.867-0.713-22.166-2.167c-61-12.333-100-72.833-107-126.166
		c-3.222-24.065,0.964-48.541,11.999-70.167c6.047-10.676,8.665-22.953,7.501-35.167c-2.391-17.011-9.821-32.917-21.334-45.667
		c-20.563-23.24-31.733-53.305-31.333-84.333c0-10.333,4-63.167,44.333-91.5C568,59.667,615.833,76.167,633.333,82.333
		c83.333,29,150,121,163,224l0,0C800,336.667,810.5,416.666,757.999,481.5C741.833,501.333,701,543.167,645.666,543.167z M581,138.5
		c-5.292-0.236-10.529,1.16-15.001,4c-10.379,10.362-16.352,24.336-16.666,39c0.316,15.986,6.83,31.224,18.166,42.5
		c18.655,22.473,30.252,49.957,33.334,79c2.316,23.643-2.135,47.457-12.834,68.667c-5.272,10.625-6.912,22.687-4.666,34.333
		c3.833,29,25.667,63.833,54.167,69.667c31.999,6.666,61.499-26.167,69.833-36.334c34.333-42.167,27.166-100,24.166-124.833l0,0
		c-10.5-77.5-60.333-147.833-119.666-169.167C601.982,141.437,591.574,139.13,581,138.5z"/>
	<path fill="#FF4D6D" d="M448.166,700c-18.409,0-33.333-14.924-33.333-33.333V383.333c0-55.229,44.771-100,100-100h33.333
		c18.409,0,33.333,14.924,33.333,33.333c0,18.41-14.924,33.333-33.333,33.333h-33.333c-18.409,0-33.333,14.924-33.333,33.333
		v283.333C481.5,685.076,466.576,700,448.166,700z"/>
	<path fill="#FF4D6D" d="M154.333,543.167c-55.333,0-96.167-42-112.5-61.667C-10.5,416.666,0,336.667,3.166,306.333
		c13.5-103,80.167-195,163.5-224c18-6.167,65.667-22.833,106,5.667c40.334,28.5,44,81.167,44,91.5
		c0.405,30.949-10.702,60.945-31.166,84.167c-11.513,12.75-18.943,28.656-21.334,45.667c-1.164,12.214,1.454,24.491,7.5,35.167
		c10.955,21.711,15.025,46.248,11.667,70.334c-7,53.499-46,113.999-107,126.166C169.089,542.443,161.72,543.17,154.333,543.167z
		 M219,138.5c-10.575,0.63-20.982,2.937-30.834,6.833C128.833,166.667,79,237,69.333,314.5l0,0
		c-3,24.833-10.167,83.333,24.167,124.833c8.333,10.667,38,43,69.833,36.334C191.833,470,213.333,435,217.5,406
		c1.585-11.885-0.818-23.961-6.834-34.333c-10.698-21.21-15.149-45.024-12.833-68.667c3.082-29.043,14.679-56.527,33.333-79
		c11.542-11.126,18.298-26.311,18.834-42.333c-0.315-14.664-6.287-28.637-16.667-39C229.066,139.907,224.082,138.458,219,138.5z"/>
	<path fill="#FF4D6D" d="M351.833,700c-18.409,0-33.333-14.924-33.333-33.333V383.333c0-18.41-14.924-33.333-33.334-33.333h-33.333
		c-18.409,0-33.333-14.924-33.333-33.333c0-18.409,14.924-33.333,33.333-33.333h33.333c55.229,0,100,44.771,100,100v283.333
		C385.166,685.076,370.242,700,351.833,700z"/>
</g>
<rect x="0" fill="none" width="800" height="800"/>
</svg>
