<?xml version="1.0" encoding="utf-8"?>
<!-- Generator: Adobe Illustrator 16.0.0, SVG Export Plug-In . SVG Version: 6.00 Build 0)  -->
<!DOCTYPE svg PUBLIC "-//W3C//DTD SVG 1.1//EN" "http://www.w3.org/Graphics/SVG/1.1/DTD/svg11.dtd">
<svg version="1.1" id="Layer_1" xmlns="http://www.w3.org/2000/svg" xmlns:xlink="http://www.w3.org/1999/xlink" x="0px" y="0px"
	 width="24px" height="24px" viewBox="0 0 24 24" enable-background="new 0 0 24 24" xml:space="preserve">
<path fill="#FFFFFF" d="M22.174,1.827v7.63H19.63V6.182l-5.054,5.023c0.402,0.594,0.71,1.224,0.921,1.892
	c0.211,0.668,0.318,1.362,0.318,2.083c0,1.949-0.679,3.604-2.034,4.96c-1.357,1.355-3.011,2.034-4.96,2.034
	s-3.603-0.679-4.959-2.034c-1.356-1.356-2.035-3.011-2.035-4.96c0-1.95,0.678-3.604,2.035-4.96s3.01-2.035,4.959-2.035
	c0.699,0,1.389,0.101,2.066,0.302c0.678,0.202,1.303,0.514,1.875,0.938l5.056-5.055h-3.275V1.827H22.174z M8.821,10.729
	c-1.229,0-2.278,0.435-3.147,1.303C4.805,12.901,4.37,13.95,4.37,15.18c0,1.229,0.435,2.277,1.303,3.146
	c0.869,0.869,1.918,1.304,3.147,1.304s2.278-0.435,3.147-1.304c0.869-0.869,1.303-1.918,1.303-3.146
	c0-1.229-0.435-2.278-1.303-3.148C11.099,11.163,10.05,10.729,8.821,10.729z"/>
</svg>
